<svg width="1036" height="1045" viewBox="0 0 1036 1045" fill="none" xmlns="http://www.w3.org/2000/svg">
<g opacity="0.3">
<path d="M0 533H100V590C100 617.614 77.6142 640 50 640C22.3858 640 0 617.614 0 590V533Z" fill="#04A545"/>
<path d="M151 533H251V731C251 758.614 228.614 781 201 781C173.386 781 151 758.614 151 731V533Z" fill="#EA4334"/>
<path d="M302 533H402V995C402 1022.61 379.614 1045 352 1045C324.386 1045 302 1022.61 302 995V533Z" fill="#FEB902"/>
<path d="M453 533H553V841C553 868.614 530.614 891 503 891C475.386 891 453 868.614 453 841V533Z" fill="#2685FD"/>
<path d="M604 533H704V675C704 702.614 681.614 725 654 725C626.386 725 604 702.614 604 675V533Z" fill="#333333"/>
<path d="M755 533H855V913C855 940.614 832.614 963 805 963C777.386 963 755 940.614 755 913V533Z" fill="#04A545"/>
<path d="M906 533H1006V590C1006 617.614 983.614 640 956 640C928.386 640 906 617.614 906 590V533Z" fill="#EA4334"/>
</g>
<path d="M30 512H130V455C130 427.386 107.614 405 80 405C52.3858 405 30 427.386 30 455V512Z" fill="#04A545"/>
<path d="M181 512H281V314C281 286.386 258.614 264 231 264C203.386 264 181 286.386 181 314V512Z" fill="#EA4334"/>
<path d="M332 512H432V50C432 22.3858 409.614 0 382 0C354.386 0 332 22.3858 332 50V512Z" fill="#FEB902"/>
<path d="M483 512H583V204C583 176.386 560.614 154 533 154C505.386 154 483 176.386 483 204V512Z" fill="#2685FD"/>
<path d="M634 512H734V370C734 342.386 711.614 320 684 320C656.386 320 634 342.386 634 370V512Z" fill="#333333"/>
<path d="M785 512H885V132C885 104.386 862.614 82 835 82C807.386 82 785 104.386 785 132V512Z" fill="#04A545"/>
<path d="M936 512H1036V455C1036 427.386 1013.61 405 986 405C958.386 405 936 427.386 936 455V512Z" fill="#EA4334"/>
</svg>
